<?xml version="1.0" encoding="UTF-8" standalone="no"?>
<!-- Created with Inkscape (http://www.inkscape.org/) -->

<svg
   version="1.1"
   id="svg46"
   width="1036.2915"
   height="216.22917"
   viewBox="0 0 1036.2915 216.22917"
   sodipodi:docname="logofinalsinfondo2.svg"
   xml:space="preserve"
   inkscape:version="1.2.2 (b0a8486541, 2022-12-01)"
   xmlns:inkscape="http://www.inkscape.org/namespaces/inkscape"
   xmlns:sodipodi="http://sodipodi.sourceforge.net/DTD/sodipodi-0.dtd"
   xmlns="http://www.w3.org/2000/svg"
   xmlns:svg="http://www.w3.org/2000/svg"><defs
     id="defs50"><linearGradient
       id="linearGradient1621"
       inkscape:swatch="solid"><stop
         style="stop-color:#000000;stop-opacity:1;"
         offset="0"
         id="stop1619" /></linearGradient></defs><sodipodi:namedview
     id="namedview48"
     pagecolor="#fefefe"
     bordercolor="#000000"
     borderopacity="0"
     inkscape:showpageshadow="2"
     inkscape:pageopacity="0"
     inkscape:pagecheckerboard="0"
     inkscape:deskcolor="#d1d1d1"
     showgrid="false"
     inkscape:zoom="0.5905987"
     inkscape:cx="523.1979"
     inkscape:cy="135.45577"
     inkscape:window-width="1920"
     inkscape:window-height="988"
     inkscape:window-x="0"
     inkscape:window-y="0"
     inkscape:window-maximized="1"
     inkscape:current-layer="g52" /><g
     inkscape:groupmode="layer"
     inkscape:label="Image"
     id="g52"
     transform="translate(-295.79561,-362.6825)"><path
       style="fill:#17416d;fill-opacity:1;stroke:none;stroke-width:0.997001;stroke-dasharray:none"
       d="m 574.24359,433.68034 1,1 c 4.448,-1.059 9.772,0.02 13.96,-1.603 6.457,-2.503 13.039,-15.116 15.04,-21.397 l -19.363,2.028 -10.637,19.972 m 302.00102,-17.424 c -13.408,3.684 -6.496,20.434 5.995,16.99 12.335,-3.401 5.586,-20.171 -5.995,-16.99 m 96.014,1.166 c -12.301,4.847 -2.145,21.19 8.945,16.169 12.549,-5.683 2.584,-20.711 -8.945,-16.169 m -629.01502,31.258 7,11 c 10.304,-4.788 31.757,-12.526 33,6 -11.647,0 -25.905,-1.522 -35.995,5.649 -10.777,7.658 -9.417,23.728 2.995,28.869 12.571,5.207 24.759,1.236 35,-6.518 1.076,6.656 15.485,13.498 19.396,5.571 2.506,-5.081 -4.086,-11.251 -4.356,-16.571 -0.45,-8.875 2.328,-20.784 -1.613,-28.999 -9.378,-19.553 -40.604,-11.081 -55.427,-5.001 m 122,46 v 26 h 18 v -77 h -17 l -1,6 c -5.685,-4.671 -11.625,-6.908 -19,-6.996 -5.988,-0.072 -11.382,0.154 -17,2.45 -18.383,7.512 -22.742,32.969 -9.787,47.506 11.679,13.105 32.815,12.698 45.787,2.04 m 186,-36 6,-8 c -8.487,-9.874 -27.709,-9.341 -39,-5.3 -8.086,2.894 -14.322,10.415 -10.852,19.3 3.844,9.843 15.038,11.049 23.852,13.721 3.187,0.967 9.661,2.774 9.079,7.25 -1.699,13.057 -23.508,0.768 -29.04,1.27 -3.625,0.328 -7.786,5.885 -5.378,9.227 2.477,3.436 8.47,4.707 12.339,5.633 12.467,2.984 38.57,1.633 40.772,-15.101 2.742,-20.843 -24.596,-14.563 -33.28,-24.558 -3.502,-4.032 1.995,-7.228 5.508,-7.955 6.885,-1.425 13.823,1.979 20,4.513 m 76,37 c -5.269,-13.895 -12.188,-5.514 -23,-5.041 -10.402,0.456 -17.172,-4.553 -21,-13.959 l 47,-1 c -0.017,-6.165 -0.641,-12.353 -3.328,-18 -16.6,-34.883 -79.928,-5.001 -55.706,31.999 2.918,4.458 7.265,7.726 12.034,10.016 6.077,2.919 12.415,2.988 19,2.985 9.357,-0.004 16.915,-2.282 25,-7 m -230,-52 c 0,14.354 -4.124,36.255 3.363,48.996 7.344,12.497 33.266,14.671 40.637,1.004 h 1 v 7 h 17 l 1,-56 -18,-1 c 0,10.925 3.237,28.101 -1.84,37.985 -4.567,8.893 -17.237,10.902 -22.932,1.922 -5.981,-9.434 -2.228,-29.032 -2.228,-39.907 h -18 m 78,0 v 57 l 17,1 c 5.005,-16.932 1,-40.317 1,-58 h -18 m 166,0 v 58 l 18,-1 c -4.331,-18.848 -2.362,-46.079 22,-43 l 3,-14 c -9.448,0 -19.813,-0.48 -25,9 h -1 l -1,-9 h -16 m 48,0 18.75302,40 8.745,16.397 15.289,1.285 8.966,-13.682 20.247,-43 h -19 l -16,40 -12.281,-27 -6.356,-11.973 -18.36302,-2.027 m 161.00002,42 c -7.013,2.019 -13.396,6.482 -21,4.2 -12.569,-3.773 -17.194,-20.632 -6.812,-29.491 12.566,-10.722 26.293,7.16 33.812,-9.709 -13.236,-8.722 -31.077,-9.966 -44.999,-1.647 -14.842,8.868 -16.575,31.029 -5.672,43.607 8.788,10.139 24.106,11.842 36.671,9.576 3.78,-0.682 12.585,-2.677 12.833,-7.629 0.151,-3.034 -3.316,-6.467 -4.833,-8.907 m 71.99999,-41.56 c -41.95599,6.742 -29.51999,64.921 11,59.132 6.2799,-0.898 12.6099,-2.135 17.9999,-5.68 17.09,-11.245 18.22,-34.98 2,-47.36 -8.43,-6.432 -20.7809,-7.734 -30.9999,-6.092 m -151.99999,0.56 v 57 h 17 v -57 h -17 m 97,57 h 17 v -57 l -15.258,1.028 -1.742,14.972 v 41 m 204.99989,-50.571 c -6.35,0.879 -11.85,2.315 -16.91,6.471 -22.33,18.359 -1.22,49.075 23.91,45.811 35.91,-4.664 28.36,-57.177 -7,-52.282 m -36,38.571 c -4.2,2.328 -8.1,5.083 -13,5.684 -26.03,3.197 -25.75,-39.825 2,-35.47 3.63,0.569 6.24,2.525 9,4.786 h 1 l 5,-8 c -10.22,-5.223 -23.23,-7.676 -34,-2.164 -14.28,7.311 -19.34,28.83 -7.53,40.696 7.23,7.268 18.74,9.539 28.53,7.663 9.08,-1.741 13.94,-4.077 9,-13.195 m 87,-31 v -6 h -10 v 39 c 0,4.825 -0.59,12.737 6.85,10.677 3.78,-1.044 3.14,-5.6 3.15,-8.677 0.02,-7.853 -1.93,-18.752 1.57,-25.996 4.34,-8.964 17.25,-10.886 21.78,-0.999 4.72,10.298 0.78,24.997 1.65,35.995 h 9 c 0,-10.446 -2.78,-25.576 2.42,-34.996 4.8,-8.714 17.37,-10.881 22.4,-0.999 4.4,8.651 1.18,25.382 1.18,34.995 h 10 c 0,-18.32 4.86,-59.968 -27,-48.891 -4.17,1.451 -7.41,4.446 -11,6.891 -6.18,-12.571 -23.74,-8.811 -32,-1 m -509.99991,8 h -30 c 5.088,-14.56 28.074,-18.677 30,0 m -269,-11.671 c 23.032,-3.936 29.766,30.895 7,34.812 -22.01,3.787 -28.847,-31.078 -7,-34.812 m 583.00001,1.011 c 21.9699,-3.159 27.5999,30.543 6,34.331 -22.608,3.965 -28.111,-31.152 -6,-34.331 m 145.9999,2.976 c 23.26,-2.859 26.81,33.254 4,36.379 -23.85,3.268 -27.5,-33.492 -4,-36.379 m -789.99991,15.684 c -0.003,3.25 0.375,6.899 -1.318,9.826 -3.665,6.338 -15.603,9.617 -21.4,4.521 -4.913,-4.319 -1.548,-10.574 3.733,-12.354 2.552,-0.86 5.334,-1.034 7.985,-1.414 3.68,-0.527 7.289,-0.579 11,-0.579 m 690.10991,15.742 c -9.08,3.9 -0.76,15.992 7.68,11.601 8.87,-4.618 0.55,-15.136 -7.68,-11.601 m -751.10991,51.258 v 1 c 29.497,-0.003 59.568,-3.895 89,-5.911 77.746,-5.324 157.058,-7.874 235,-8.089 -6.459,-2.736 -14.149,-1.518 -21,-2.17 -19.565,-1.862 -39.351,-0.363 -59,-0.845 -53.832,-1.319 -108.334,1.057 -162,6.185 -27.018,2.581 -54.965,9.272 -82,9.83 z"
       id="path2309" /><path
       style="fill:#002e85;fill-opacity:1;stroke:none;stroke-width:0;stroke-dasharray:none"
       d="m 1029.3362,484.06446 c -0.027,-0.0898 -0.1626,-0.57005 -0.2999,-1.06726 -0.299,-1.08249 -0.6532,-2.34709 -0.718,-2.56369 l -0.047,-0.15644 -0.4629,0.28568 c -1.3074,0.8069 -3.9706,2.33386 -3.8341,2.19827 0.038,-0.0378 0.4331,-0.3032 0.8596,-0.57742 0.5406,-0.34765 0.8632,-0.55822 1.751,-1.143 1.1464,-0.75514 1.8451,-1.19856 1.8625,-1.18206 0.017,0.0164 0.3986,1.404 0.8576,3.12151 l 0.261,0.97709 0.5853,-0.002 0.5852,-0.002 0.09,-0.34376 c 0.3806,-1.44942 1.0064,-3.73156 1.0292,-3.75316 0.012,-0.0115 1.1456,0.70245 3.3369,2.1016 0.5309,0.33897 1.0328,0.66158 1.1154,0.71692 0.1997,0.13383 0.2164,0.10503 0.027,-0.0456 -0.1954,-0.15495 -1.3682,-1.01445 -1.7595,-1.28947 -0.6672,-0.46899 -1.0457,-0.73265 -1.273,-0.88686 -1.3559,-0.91991 -1.6409,-1.10386 -1.6597,-1.07126 -0.011,0.0198 -0.1082,0.40793 -0.2153,0.86265 -0.1861,0.79 -0.8227,3.40035 -0.849,3.4808 -0.01,0.0293 -0.1133,0.0364 -0.4339,0.0301 l -0.4214,-0.008 -0.1208,-0.46599 c -0.1191,-0.45885 -0.5726,-2.36844 -0.807,-3.39725 -0.066,-0.28937 -0.1237,-0.53098 -0.1285,-0.53693 -0.01,-0.006 -0.2032,0.12259 -0.4407,0.28562 -0.2377,0.16303 -0.5,0.34165 -0.5829,0.39694 -0.4006,0.267 -1.6909,1.17763 -2.1406,1.51064 -0.1663,0.1232 -0.4027,0.29812 -0.5252,0.38871 -0.4572,0.33791 -1.0539,0.79698 -1.1513,0.88575 -0.056,0.0505 -0.162,0.12429 -0.2369,0.16402 l -0.1361,0.0723 0.1563,-0.19303 c 0.5328,-0.65817 1.8736,-2.24532 2.7662,-3.2746 0.759,-0.87516 1.7772,-2.05596 2.7576,-3.19803 0.4808,-0.56011 0.8995,-1.04714 0.9303,-1.08231 0.052,-0.0588 0.06,-0.06 0.097,-0.0139 0.023,0.0275 0.1783,0.20338 0.3463,0.39084 1.5348,1.71298 3.8897,4.39863 4.978,5.6772 0.2322,0.27283 0.4918,0.57724 0.577,0.67644 0.2337,0.27249 0.8228,0.98931 0.8537,1.03878 0.021,0.0325 0.012,0.0312 -0.034,-0.005 -0.034,-0.0267 -0.3333,-0.19741 -0.666,-0.37934 -0.8475,-0.46347 -2.1953,-1.22935 -3.2613,-1.85322 -0.498,-0.29144 -0.9148,-0.52988 -0.9263,-0.52988 -0.011,0 -0.06,0.14543 -0.1088,0.32318 -0.048,0.17776 -0.1938,0.70876 -0.3235,1.18001 -0.1296,0.47126 -0.3302,1.20858 -0.4457,1.63851 l -0.2102,0.78167 h -0.7765 -0.7765 z m -6.4123,-1.16207 c 0,-0.0498 0.1411,-0.53404 0.2052,-0.70401 0.041,-0.10747 0.2126,-0.62834 0.3825,-1.15746 0.1699,-0.52914 0.3647,-1.13116 0.4326,-1.33786 0.068,-0.2067 0.2166,-0.66677 0.3302,-1.02242 0.1135,-0.35563 0.2717,-0.83473 0.3513,-1.06465 0.08,-0.22991 0.1392,-0.42341 0.1323,-0.42997 -0.01,-0.007 -0.4118,0.0504 -0.8995,0.12645 -0.7146,0.11151 -3.7917,0.56459 -4.0363,0.5943 -0.045,0.005 -0.1489,-0.0946 -0.3792,-0.36359 -0.1747,-0.20409 -0.3042,-0.37997 -0.2875,-0.39084 0.017,-0.0108 0.2229,-0.15584 0.4587,-0.32218 1.1545,-0.81461 2.4655,-1.69211 3.4109,-2.2831 0.3969,-0.24803 0.7226,-0.4585 0.724,-0.46772 0.01,-0.0192 -0.014,-0.0306 -1.1277,-0.76542 -0.4552,-0.30038 -1.0569,-0.69911 -1.337,-0.88608 -0.4595,-0.30664 -1.1464,-0.76049 -1.751,-1.15687 -0.3947,-0.25874 -1.0357,-0.71646 -1.0217,-0.7296 0.01,-0.007 0.041,0.002 0.075,0.0185 0.034,0.0172 0.4614,0.17441 0.9498,0.34941 0.4884,0.17499 1.1101,0.40022 1.3815,0.5005 0.2714,0.10029 0.6439,0.23392 0.8278,0.29696 0.1838,0.063 0.5634,0.19802 0.8435,0.29995 0.2802,0.10195 0.7674,0.27795 1.0825,0.39114 1.2996,0.46673 4.8518,1.79069 4.8829,1.81993 0.01,0.006 -0.032,0.0761 -0.085,0.15529 -0.053,0.0792 -0.2219,0.34688 -0.3747,0.59491 -0.1527,0.24803 -0.4235,0.68771 -0.6017,0.97708 -1.2561,2.0399 -2.5693,4.07542 -3.6365,5.63703 -0.1921,0.28109 -0.4748,0.69711 -0.6282,0.92447 -0.2574,0.38173 -0.3051,0.44357 -0.3051,0.39584 z m 14.2945,-0.30354 c -0.093,-0.14376 -0.3436,-0.51252 -0.5568,-0.81947 -1.4355,-2.0675 -2.274,-3.34562 -3.7962,-5.78701 -0.2879,-0.46177 -0.6245,-0.99615 -0.748,-1.18753 -0.3452,-0.5352 -0.3626,-0.56719 -0.3272,-0.60006 0.072,-0.0664 4.4206,-1.68888 6.4149,-2.39318 2.0891,-0.73784 3.6196,-1.28743 3.661,-1.31464 0.026,-0.0173 0.01,0.008 -0.051,0.0551 -0.1249,0.11006 -0.4441,0.32685 -1.3914,0.9451 -0.4165,0.27191 -0.8776,0.57555 -1.0242,0.67477 -0.1467,0.0992 -0.442,0.29538 -0.6561,0.43593 -0.214,0.14055 -0.5768,0.37963 -0.8062,0.53129 -0.2293,0.15166 -0.6426,0.42012 -0.9184,0.59657 -0.2758,0.17646 -0.5015,0.33264 -0.5015,0.34704 0,0.0144 0.032,0.0424 0.072,0.0621 0.1903,0.0956 1.3249,0.82133 2.6662,1.7056 1.2337,0.81329 1.9169,1.29689 1.8981,1.34338 -0.01,0.0194 -0.1334,0.18723 -0.2788,0.37284 -0.2601,0.33178 -0.2665,0.33725 -0.3768,0.32479 -0.062,-0.007 -0.356,-0.0487 -0.6536,-0.0928 -0.2976,-0.0441 -1.2001,-0.17423 -2.0055,-0.28916 -0.8055,-0.11494 -1.6616,-0.23881 -1.9024,-0.27529 -0.2409,-0.0364 -0.4441,-0.0605 -0.4516,-0.0534 -0.01,0.007 0.066,0.23583 0.1635,0.50841 0.261,0.73086 0.9071,2.59937 1.1434,3.30657 0.1132,0.33898 0.2716,0.80572 0.3519,1.03721 0.1584,0.45696 0.266,0.80609 0.2523,0.81904 -0.01,0.004 -0.085,-0.10945 -0.1778,-0.25321 z m -14.2923,-0.0562 c 0,-0.0173 0.075,-0.38937 0.17,-0.82676 0.095,-0.43738 0.2318,-1.0726 0.3044,-1.41157 0.1397,-0.65136 0.5296,-2.24995 0.5786,-2.37137 l 0.029,-0.0717 -0.2316,0.0212 c -0.1274,0.0117 -0.7402,0.0818 -1.3618,0.1559 -0.6216,0.074 -1.2448,0.14745 -1.3849,0.16307 -0.14,0.0156 -0.5526,0.0616 -0.9169,0.10209 -0.3641,0.0405 -0.6793,0.0668 -0.7003,0.0584 -0.021,-0.008 -0.203,-0.22027 -0.4044,-0.47086 -0.2013,-0.25058 -0.4124,-0.50483 -0.4689,-0.56496 l -0.1028,-0.10935 0.5326,-0.37911 c 0.293,-0.20851 1.206,-0.86083 2.0289,-1.44963 0.8229,-0.58879 1.564,-1.11359 1.6469,-1.16621 0.083,-0.0526 0.1506,-0.10244 0.1505,-0.11071 0,-0.008 -0.057,-0.0529 -0.1261,-0.0992 -0.5203,-0.34766 -3.0809,-2.40599 -3.3745,-2.71273 -0.1359,-0.14197 -0.1519,-0.15289 1.2626,0.86288 1.7453,1.25334 2.6836,1.93574 2.6843,1.95215 0,0.01 -0.1,0.0813 -0.2228,0.15847 -0.4732,0.29719 -2.974,2.01184 -3.8608,2.64715 l -0.3326,0.23823 0.1312,0.15447 c 0.072,0.085 0.2499,0.2977 0.3951,0.47276 0.2607,0.31433 0.2654,0.31814 0.382,0.3057 0.6234,-0.0665 4.0256,-0.4785 4.3204,-0.52317 0.2626,-0.0398 0.3127,-0.0377 0.2923,0.0125 -0.028,0.0691 -0.6304,2.20185 -0.99,3.50569 -0.3276,1.18796 -0.426,1.52079 -0.4303,1.45667 z m 14.3568,-0.30585 c -0.022,-0.079 -0.058,-0.20455 -0.082,-0.27895 -0.024,-0.0744 -0.1164,-0.40587 -0.2069,-0.73657 -0.09,-0.3307 -0.3215,-1.13567 -0.5134,-1.78882 -0.4387,-1.49383 -0.5432,-1.86716 -0.5271,-1.88232 0.01,-0.007 0.7564,0.0757 1.6653,0.18289 0.909,0.10722 1.9534,0.2297 2.3211,0.27217 0.3678,0.0424 0.6909,0.0834 0.7182,0.091 0.028,0.008 0.086,-0.0233 0.1302,-0.069 0.1182,-0.12118 0.6961,-0.84946 0.6935,-0.87383 -0.01,-0.0115 -0.098,-0.088 -0.2149,-0.17017 -0.9694,-0.68086 -1.542,-1.07047 -3.8323,-2.60711 -0.205,-0.13744 -0.3732,-0.25728 -0.3741,-0.26632 0,-0.009 0.2164,-0.17138 0.4829,-0.36077 0.5521,-0.39244 2.1127,-1.51246 2.4879,-1.78547 0.1378,-0.10028 0.3193,-0.22969 0.4032,-0.28756 0.084,-0.0579 0.263,-0.1864 0.398,-0.28561 0.3944,-0.28985 0.4249,-0.30498 0.2051,-0.10177 -0.5473,0.506 -2.8069,2.30778 -3.4534,2.75374 -0.093,0.0645 -0.094,0.0668 -0.032,0.10965 0.035,0.0241 0.1592,0.1093 0.2759,0.18938 0.1168,0.0801 0.4892,0.34274 0.8278,0.58368 0.3384,0.24094 1.1955,0.84809 1.9045,1.34923 0.7092,0.50112 1.2933,0.92063 1.2982,0.93224 0.01,0.0116 -0.086,0.13502 -0.2009,0.27424 -0.1154,0.13922 -0.3141,0.3817 -0.4417,0.53882 -0.1277,0.15711 -0.2537,0.30262 -0.2802,0.32336 -0.039,0.0305 -0.265,0.0122 -1.1906,-0.0963 -0.6284,-0.0737 -1.4506,-0.16918 -1.827,-0.21212 -0.3765,-0.0429 -0.8389,-0.0977 -1.0278,-0.12168 -0.1888,-0.024 -0.4018,-0.0436 -0.4733,-0.0436 -0.1197,0 -0.1283,0.005 -0.1092,0.0677 0.069,0.22588 0.4554,1.74822 0.6047,2.38258 0.2668,1.13374 0.5311,2.50344 0.37,1.91745 z m -7.3554,-7.91327 c -0.2652,-0.0762 -0.4702,-0.27212 -0.5568,-0.53226 -0.1725,-0.5177 0.2297,-1.04601 0.7943,-1.04344 0.7432,0.003 1.12,0.8661 0.5949,1.36195 -0.2191,0.20697 -0.5554,0.29332 -0.8324,0.21375 z m -1.4324,-2.10778 c -0.1663,-0.0301 -0.5531,-0.0972 -0.8595,-0.14903 -2.3831,-0.40304 -4.6166,-0.881 -7.5291,-1.61111 -0.5778,-0.14485 -1.1712,-0.29309 -1.3185,-0.3294 -0.2656,-0.0655 -0.2668,-0.0662 -0.1433,-0.0868 0.068,-0.0115 1.5286,-0.032 3.2445,-0.0457 3.5453,-0.0283 3.2632,-0.0234 3.2632,-0.0575 0,-0.0144 -0.1127,-0.2139 -0.2504,-0.44345 -0.4276,-0.71283 -2.0355,-3.46738 -2.268,-3.88578 -0.097,-0.17367 -0.1276,-0.25589 -0.1003,-0.26548 0.022,-0.008 0.1885,-0.1143 0.3707,-0.23698 0.1821,-0.12268 0.3479,-0.22305 0.3683,-0.22305 0.021,0 0.2977,0.19878 0.6162,0.44173 0.8441,0.64397 1.3747,1.04943 1.6455,1.2575 0.1313,0.10089 0.4966,0.38115 0.8118,0.62282 0.3152,0.24166 0.663,0.5099 0.773,0.59609 0.1099,0.0862 0.2039,0.15146 0.2089,0.14504 0.027,-0.0347 1.4614,-3.6826 1.9274,-4.90201 0.169,-0.44224 0.5166,-1.23437 0.5344,-1.21762 0.01,0.003 -0.027,0.66882 -0.07,1.4787 -0.1113,2.14658 -0.2171,3.67946 -0.3662,5.3057 -0.1351,1.47344 -0.1554,1.68521 -0.205,2.14958 -0.025,0.2315 -0.07,0.6678 -0.1012,0.96957 l -0.056,0.54867 -0.097,-0.003 c -0.054,-0.002 -0.233,-0.028 -0.3994,-0.0581 z m 2.8334,0.0231 c 0,-0.0211 -0.013,-0.14625 -0.03,-0.2781 -0.017,-0.13185 -0.039,-0.32766 -0.049,-0.43514 -0.011,-0.10749 -0.033,-0.31718 -0.05,-0.46599 -0.147,-1.28484 -0.3667,-3.7324 -0.4601,-5.12594 -0.153,-2.28193 -0.1816,-2.72987 -0.2164,-3.40229 -0.021,-0.40789 -0.034,-0.73684 -0.027,-0.73102 0.013,0.0123 0.2956,0.667 0.402,0.93148 0.191,0.47448 0.5711,1.43855 0.7645,1.93913 0.4706,1.21799 1.2801,3.24802 1.3044,3.27094 0.01,0.006 0.1464,-0.0953 0.3118,-0.22472 0.1653,-0.12937 0.5923,-0.45845 0.9487,-0.73128 0.638,-0.4883 1.0667,-0.81967 1.386,-1.07138 0.3361,-0.26501 1.3351,-1.01104 1.3713,-1.02419 0.029,-0.0106 0.6538,0.36601 0.7858,0.47417 0.015,0.0122 -0.038,0.13516 -0.1163,0.27317 -1.1272,1.96983 -2.3161,4.00115 -2.4531,4.19138 l -0.085,0.11818 0.5178,0.0184 c 0.2848,0.0102 1.608,0.0203 2.9403,0.0226 2.4191,0.004 3.1965,0.021 3.1965,0.0689 0,0.014 -0.029,0.0254 -0.063,0.0254 -0.059,0 -0.7411,0.16053 -1.3375,0.31509 -2.731,0.70773 -5.4932,1.29683 -8.3851,1.78824 -0.6051,0.10282 -0.6563,0.10695 -0.6563,0.053 z m -11.6832,-2.31685 c 0.022,-0.0213 0.7186,-0.0947 1.6072,-0.1695 0.4027,-0.0339 0.9543,-0.0813 1.2257,-0.10544 0.2714,-0.0241 0.7656,-0.0663 1.0983,-0.0937 0.3327,-0.0274 0.6118,-0.0557 0.6201,-0.0629 0.01,-0.007 -0.035,-0.10346 -0.095,-0.21405 -0.061,-0.11058 -0.2586,-0.47164 -0.4396,-0.80234 -0.1809,-0.33072 -0.4262,-0.77717 -0.545,-0.99212 -0.1189,-0.21496 -0.435,-0.7967 -0.7024,-1.29276 -0.2674,-0.49605 -0.4985,-0.91478 -0.5135,-0.93049 -0.065,-0.0681 -0.01,-0.13308 0.2673,-0.3114 0.1619,-0.1043 0.4712,-0.31064 0.6873,-0.45852 l 0.3929,-0.26887 0.1006,0.0662 c 0.055,0.0364 0.2853,0.20212 0.5111,0.36832 0.2259,0.1662 0.643,0.47129 0.9268,0.67798 0.2839,0.20668 0.8225,0.59977 1.197,0.87352 0.967,0.70683 1.0705,0.78 1.1033,0.78 0.031,0 0.066,-0.0677 0.8676,-1.68359 0.8573,-1.72854 1.2074,-2.40649 1.2087,-2.3406 0,0.0291 -0.6728,1.60847 -1.1132,2.61118 -0.091,0.20669 -0.2202,0.50433 -0.2875,0.66141 -0.15,0.34987 -0.5309,1.17316 -0.5522,1.19319 -0.015,0.0139 -0.6612,-0.4474 -1.8726,-1.33641 -0.3095,-0.22713 -0.9013,-0.66008 -1.3152,-0.9621 l -0.7525,-0.54913 -0.4038,0.26531 c -0.2222,0.14593 -0.4576,0.29834 -0.5232,0.33869 -0.066,0.0404 -0.1192,0.0815 -0.1193,0.0914 -3e-4,0.0339 1.2059,2.23143 2.0778,3.78506 l 0.3627,0.64638 -0.1777,0.0207 c -0.1806,0.021 -1.7359,0.0921 -3.1544,0.1443 -0.4291,0.0158 -0.9878,0.0371 -1.2417,0.0474 -0.2538,0.0104 -0.4542,0.0116 -0.4451,0.003 z m 20.629,-0.0104 c -0.026,-0.003 -0.5491,-0.0204 -1.162,-0.0384 -0.6127,-0.0181 -1.3434,-0.0457 -1.6235,-0.0617 -0.2802,-0.0159 -0.8026,-0.0431 -1.1608,-0.0607 -0.3583,-0.0175 -0.6572,-0.0373 -0.6643,-0.0439 -0.01,-0.007 0.016,-0.0568 0.051,-0.1114 0.035,-0.0546 0.2319,-0.40369 0.4373,-0.77573 0.5334,-0.96638 0.7374,-1.33471 0.8908,-1.60844 0.442,-0.78888 1.0449,-1.95098 1.0168,-1.95983 -0.018,-0.006 -0.2653,-0.15876 -0.5493,-0.3401 l -0.5163,-0.32972 -0.4063,0.30768 c -0.2235,0.16923 -0.5276,0.39677 -0.6758,0.50566 -0.1484,0.10889 -0.5204,0.38391 -0.8268,0.61115 -1.3352,0.99024 -1.9435,1.43065 -1.9761,1.43065 -0.012,0 -0.05,-0.0643 -0.086,-0.14281 -0.035,-0.0785 -0.1396,-0.30514 -0.2304,-0.50357 -0.091,-0.19842 -0.3006,-0.66517 -0.4665,-1.03721 -0.1658,-0.37205 -0.3595,-0.80497 -0.4303,-0.96205 -0.2886,-0.64006 -0.8219,-1.90792 -0.8131,-1.93296 0.01,-0.0148 0.026,0.005 0.047,0.0437 0.147,0.277 1.0084,1.9828 1.3183,2.61088 0.6807,1.37924 0.7433,1.50126 0.7662,1.49468 0.013,-0.004 0.4853,-0.34588 1.0506,-0.76066 1.5818,-1.16058 2.4019,-1.75921 2.598,-1.8963 l 0.1789,-0.12505 0.3511,0.22916 c 0.3503,0.22855 0.7772,0.5183 0.9537,0.64725 0.09,0.0658 0.091,0.0709 0.044,0.15679 -0.027,0.0488 -0.3224,0.60287 -0.6574,1.23121 -0.335,0.62834 -0.7179,1.3386 -0.8509,1.57837 -0.6296,1.13543 -0.7828,1.41894 -0.7718,1.42929 0.01,0.006 0.3551,0.0388 0.7747,0.0727 0.4195,0.0338 1.0778,0.0892 1.4631,0.12313 0.3852,0.0339 1.0298,0.088 1.4326,0.1201 0.7521,0.0601 1.1641,0.1202 0.7481,0.10922 -0.1139,-0.003 -0.2284,-0.008 -0.2547,-0.0111 z m -9.2462,-7.15585 c -0.017,-0.0428 -0.014,-0.0463 0.017,-0.0168 0.022,0.0204 0.032,0.0446 0.022,0.0539 -0.01,0.009 -0.028,-0.008 -0.04,-0.0371 z"
       id="path214" /><path
       style="fill:#002e85;fill-opacity:1;stroke:none;stroke-width:0;stroke-dasharray:none"
       d="m 1174.1987,487.76739 c -0.028,-0.087 -0.1652,-0.55214 -0.3047,-1.03371 -0.3036,-1.04845 -0.6632,-2.27328 -0.7292,-2.48307 l -0.047,-0.15153 -0.47,0.27671 c -1.3279,0.78153 -4.0329,2.26047 -3.8942,2.12914 0.039,-0.0366 0.4399,-0.29366 0.8729,-0.55926 0.5492,-0.33673 0.8768,-0.54068 1.7785,-1.10706 1.1644,-0.73139 1.874,-1.16086 1.8918,-1.1449 0.018,0.0159 0.4048,1.35987 0.8709,3.02336 l 0.2653,0.94636 0.5944,-0.002 0.5943,-0.002 0.092,-0.33296 c 0.3866,-1.40384 1.0222,-3.61422 1.0453,-3.63514 0.012,-0.0111 1.1636,0.68036 3.3892,2.03552 0.5392,0.32831 1.0491,0.64078 1.1329,0.69437 0.2029,0.12962 0.2199,0.10173 0.027,-0.0442 -0.1984,-0.15008 -1.3897,-0.98255 -1.787,-1.24891 -0.6777,-0.45425 -1.0622,-0.70962 -1.293,-0.85898 -1.3772,-0.89099 -1.6667,-1.06915 -1.6858,-1.03758 -0.011,0.0191 -0.1098,0.39511 -0.2186,0.83553 -0.189,0.76516 -0.8357,3.29341 -0.8623,3.37134 -0.01,0.0284 -0.1151,0.0353 -0.4407,0.0291 l -0.4279,-0.008 -0.1228,-0.45134 c -0.121,-0.44441 -0.5816,-2.29395 -0.8196,-3.2904 -0.067,-0.28027 -0.1257,-0.51429 -0.1306,-0.52005 -0.01,-0.006 -0.2063,0.11873 -0.4476,0.27663 -0.2414,0.15791 -0.5078,0.3309 -0.592,0.38446 -0.4068,0.2586 -1.7175,1.1406 -2.1741,1.46314 -0.1689,0.11932 -0.409,0.28874 -0.5336,0.37648 -0.4643,0.32728 -1.0703,0.77192 -1.1692,0.8579 -0.056,0.0489 -0.1646,0.12038 -0.2406,0.15886 l -0.1383,0.07 0.1587,-0.18696 c 0.5413,-0.63747 1.903,-2.17471 2.8097,-3.17163 0.7709,-0.84763 1.805,-1.9913 2.8007,-3.09745 0.4884,-0.5425 0.9136,-1.01422 0.945,-1.04828 0.052,-0.057 0.06,-0.0581 0.098,-0.0135 0.023,0.0267 0.1812,0.19698 0.3517,0.37855 1.5589,1.65911 3.9507,4.26031 5.056,5.49866 0.236,0.26426 0.4997,0.55909 0.5861,0.65518 0.2374,0.26392 0.8358,0.95819 0.8672,1.00611 0.021,0.0315 0.012,0.0302 -0.035,-0.004 -0.034,-0.0258 -0.3386,-0.1912 -0.6765,-0.36742 -0.8608,-0.44889 -2.2297,-1.19069 -3.3123,-1.79494 -0.5059,-0.28227 -0.9292,-0.51321 -0.9409,-0.51321 -0.011,0 -0.061,0.14085 -0.1104,0.31301 -0.049,0.17217 -0.1969,0.68648 -0.3286,1.14291 -0.1317,0.45644 -0.3355,1.17057 -0.4528,1.58698 l -0.2134,0.75709 h -0.7887 -0.7887 z m -6.5127,-1.12555 c 0,-0.0482 0.1432,-0.51724 0.2083,-0.68185 0.042,-0.1041 0.216,-0.60858 0.3885,-1.12108 0.1726,-0.5125 0.3704,-1.09558 0.4394,-1.29578 0.069,-0.2002 0.22,-0.64581 0.3353,-0.99027 0.1153,-0.34446 0.276,-0.80848 0.3569,-1.03118 0.081,-0.22268 0.1414,-0.41009 0.1344,-0.41645 -0.01,-0.007 -0.4183,0.0488 -0.9137,0.12248 -0.7258,0.108 -3.8511,0.54684 -4.0996,0.57562 -0.046,0.005 -0.1512,-0.0916 -0.3851,-0.35217 -0.1774,-0.19767 -0.3089,-0.36801 -0.292,-0.37854 0.017,-0.0105 0.2264,-0.15094 0.4659,-0.31205 1.1726,-0.78899 2.5041,-1.6389 3.4644,-2.21131 0.4031,-0.24023 0.7339,-0.44408 0.7354,-0.45301 0.01,-0.0186 -0.014,-0.0296 -1.1454,-0.74135 -0.4624,-0.29093 -1.0735,-0.67712 -1.358,-0.85821 -0.4667,-0.297 -1.1644,-0.73657 -1.7785,-1.12049 -0.4008,-0.25061 -1.0519,-0.69394 -1.0377,-0.70666 0.01,-0.007 0.042,0.001 0.076,0.0179 0.034,0.0166 0.4686,0.16892 0.9647,0.33842 0.4961,0.16948 1.1275,0.38763 1.4032,0.48476 0.2756,0.0971 0.654,0.22657 0.8407,0.28762 0.1867,0.0611 0.5723,0.19179 0.8568,0.29052 0.2846,0.0987 0.7793,0.26921 1.0994,0.37884 1.3199,0.45205 4.9279,1.73438 4.9594,1.7627 0.01,0.006 -0.032,0.0737 -0.086,0.1504 -0.054,0.0767 -0.2253,0.33598 -0.3805,0.5762 -0.1552,0.24023 -0.4302,0.66609 -0.6112,0.94636 -1.2758,1.97575 -2.6095,3.94726 -3.6934,5.45977 -0.1951,0.27225 -0.4823,0.67518 -0.638,0.89539 -0.2616,0.36973 -0.3099,0.42963 -0.3099,0.3834 z m 14.5184,-0.29398 c -0.094,-0.13925 -0.3489,-0.49641 -0.5654,-0.79371 -1.4581,-2.00249 -2.3097,-3.2404 -3.8558,-5.60503 -0.2924,-0.44725 -0.6343,-0.96482 -0.7597,-1.15019 -0.3506,-0.51835 -0.3683,-0.54934 -0.3324,-0.58119 0.072,-0.0643 4.49,-1.63577 6.5155,-2.31792 2.1219,-0.71463 3.6765,-1.24694 3.7185,-1.27329 0.026,-0.0168 0.01,0.007 -0.051,0.0534 -0.1269,0.1066 -0.4511,0.31658 -1.4132,0.91538 -0.4231,0.26336 -0.8913,0.55746 -1.0403,0.65354 -0.149,0.0961 -0.4489,0.2861 -0.6663,0.42223 -0.2175,0.13612 -0.586,0.36769 -0.8189,0.51457 -0.2329,0.14691 -0.6527,0.40692 -0.9328,0.57783 -0.2801,0.17091 -0.5094,0.32217 -0.5094,0.33612 0,0.0139 0.033,0.041 0.073,0.0602 0.1933,0.0926 1.3456,0.79551 2.708,1.65197 1.2531,0.78771 1.947,1.25611 1.9278,1.30113 -0.01,0.0188 -0.1354,0.18135 -0.2831,0.36111 -0.2642,0.32135 -0.2706,0.32664 -0.3827,0.31459 -0.063,-0.007 -0.3616,-0.0472 -0.6638,-0.0899 -0.3023,-0.0428 -1.219,-0.16874 -2.037,-0.28006 -0.8182,-0.11133 -1.6877,-0.23131 -1.9323,-0.26663 -0.2447,-0.0353 -0.451,-0.0586 -0.4587,-0.0518 -0.01,0.007 0.068,0.22843 0.1661,0.49243 0.2651,0.70788 0.9214,2.51763 1.1613,3.2026 0.115,0.32831 0.2759,0.78037 0.3575,1.00459 0.1609,0.44259 0.2702,0.78074 0.2562,0.79329 -0.01,0.004 -0.086,-0.10601 -0.1805,-0.24526 z m -14.5163,-0.0544 c 0,-0.0168 0.076,-0.37712 0.1728,-0.80076 0.096,-0.42363 0.2353,-1.03887 0.3091,-1.36719 0.1418,-0.63087 0.5379,-2.17919 0.5876,-2.2968 l 0.029,-0.0695 -0.2352,0.0206 c -0.1294,0.0113 -0.7518,0.0793 -1.3831,0.15099 -0.6314,0.0717 -1.2643,0.14282 -1.4066,0.15795 -0.1422,0.0151 -0.5613,0.0596 -0.9313,0.0989 -0.3698,0.0392 -0.69,0.0647 -0.7112,0.0566 -0.022,-0.008 -0.2062,-0.21333 -0.4108,-0.45604 -0.2045,-0.24271 -0.4189,-0.48895 -0.4762,-0.5472 l -0.1045,-0.10591 0.5409,-0.36719 c 0.2976,-0.20195 1.2249,-0.83376 2.0608,-1.40404 0.8358,-0.57028 1.5886,-1.07857 1.6727,-1.12954 0.084,-0.0509 0.153,-0.0992 0.1529,-0.10722 0,-0.008 -0.058,-0.0512 -0.1281,-0.0961 -0.5285,-0.33672 -3.1292,-2.33033 -3.4274,-2.62742 -0.1381,-0.13751 -0.1544,-0.14809 1.2824,0.83574 1.7726,1.21393 2.7257,1.87487 2.7263,1.89077 0,0.01 -0.1014,0.0787 -0.2262,0.15348 -0.4807,0.28784 -3.0207,1.94857 -3.9214,2.56391 l -0.3377,0.23073 0.1332,0.14962 c 0.073,0.0823 0.2538,0.28834 0.4013,0.45789 0.2647,0.30445 0.2696,0.30814 0.388,0.29609 0.6332,-0.0644 4.0887,-0.46346 4.3881,-0.50672 0.2667,-0.0386 0.3175,-0.0365 0.2969,0.0121 -0.029,0.0669 -0.6403,2.1326 -1.0056,3.39544 -0.3327,1.15061 -0.4326,1.47297 -0.4371,1.41086 z m 14.582,-0.29623 c -0.023,-0.0765 -0.06,-0.19812 -0.083,-0.27018 -0.024,-0.0721 -0.1183,-0.3931 -0.2103,-0.71341 -0.092,-0.3203 -0.3266,-1.09995 -0.5214,-1.73256 -0.4456,-1.44686 -0.5517,-1.80845 -0.5354,-1.82313 0.01,-0.007 0.7683,0.0733 1.6915,0.17713 0.9232,0.10386 1.9841,0.22248 2.3576,0.26362 0.3734,0.0411 0.7016,0.0808 0.7293,0.0882 0.028,0.007 0.087,-0.0226 0.1323,-0.0669 0.1201,-0.11737 0.707,-0.82275 0.7043,-0.84636 -0.01,-0.0111 -0.1,-0.0852 -0.2182,-0.16482 -0.9845,-0.65945 -1.5662,-1.0368 -3.8924,-2.52512 -0.2082,-0.13312 -0.3792,-0.24919 -0.38,-0.25794 0,-0.009 0.2198,-0.16599 0.4904,-0.34943 0.5608,-0.3801 2.146,-1.4649 2.527,-1.72932 0.1401,-0.0971 0.3243,-0.22247 0.4095,-0.27852 0.085,-0.0561 0.2672,-0.18054 0.4043,-0.27663 0.4005,-0.28073 0.4315,-0.29539 0.2083,-0.0986 -0.5559,0.49008 -2.8509,2.2352 -3.5076,2.66713 -0.095,0.0625 -0.096,0.0647 -0.032,0.1062 0.035,0.0233 0.1616,0.10587 0.2802,0.18344 0.1186,0.0775 0.4969,0.33195 0.8408,0.56532 0.3438,0.23337 1.2143,0.82142 1.9344,1.3068 0.7204,0.48536 1.3136,0.89169 1.3186,0.90293 0.01,0.0112 -0.087,0.13077 -0.2041,0.26561 -0.1172,0.13484 -0.319,0.36969 -0.4486,0.52187 -0.1297,0.15218 -0.2577,0.29311 -0.2846,0.3132 -0.039,0.0296 -0.2691,0.0118 -1.2093,-0.0933 -0.6382,-0.0714 -1.4733,-0.16386 -1.8556,-0.20545 -0.3824,-0.0416 -0.8521,-0.0946 -1.044,-0.11784 -0.1918,-0.0232 -0.4081,-0.0422 -0.4807,-0.0422 -0.1215,0 -0.1303,0.005 -0.1109,0.0655 0.07,0.21878 0.4625,1.69324 0.6141,2.30765 0.271,1.09809 0.5395,2.42472 0.3758,1.85715 z m -7.4708,-7.66442 c -0.2693,-0.0738 -0.4776,-0.26357 -0.5656,-0.51553 -0.1751,-0.50142 0.2333,-1.01312 0.8068,-1.01063 0.7548,0.003 1.1376,0.83886 0.6042,1.31913 -0.2225,0.20046 -0.5641,0.28409 -0.8454,0.20703 z m -1.4548,-2.0415 c -0.169,-0.0291 -0.5618,-0.0942 -0.8731,-0.14435 -2.4204,-0.39036 -4.6889,-0.85329 -7.6471,-1.56044 -0.5868,-0.14029 -1.1895,-0.28387 -1.3392,-0.31905 -0.2697,-0.0634 -0.2709,-0.0641 -0.1454,-0.0841 0.07,-0.0111 1.5525,-0.031 3.2953,-0.0442 3.6008,-0.0274 3.3144,-0.0226 3.3144,-0.0557 0,-0.0139 -0.1146,-0.20718 -0.2544,-0.4295 -0.4343,-0.69042 -2.0674,-3.35835 -2.3036,-3.76359 -0.098,-0.16822 -0.1296,-0.24784 -0.1018,-0.25713 0.023,-0.007 0.1914,-0.1107 0.3764,-0.22952 0.1851,-0.11882 0.3535,-0.21604 0.3742,-0.21604 0.021,0 0.3023,0.19253 0.6258,0.42784 0.8574,0.62371 1.3963,1.01643 1.6714,1.21795 0.1333,0.0977 0.5044,0.36917 0.8244,0.60323 0.3202,0.23406 0.6735,0.49387 0.7852,0.57735 0.1116,0.0835 0.2071,0.1467 0.2122,0.14048 0.027,-0.0336 1.4842,-3.5668 1.9575,-4.74785 0.1716,-0.42834 0.5248,-1.19556 0.5428,-1.17934 0.01,0.003 -0.028,0.64779 -0.071,1.4322 -0.113,2.07909 -0.2205,3.56376 -0.3719,5.13885 -0.1373,1.42711 -0.1578,1.63222 -0.2082,2.08199 -0.025,0.22422 -0.071,0.6468 -0.1028,0.93908 l -0.057,0.53142 -0.098,-0.003 c -0.055,-0.002 -0.2367,-0.0271 -0.4057,-0.0563 z m 2.8777,0.0224 c 0,-0.0205 -0.014,-0.14164 -0.03,-0.26934 -0.017,-0.12772 -0.039,-0.31736 -0.05,-0.42146 -0.011,-0.10411 -0.033,-0.3072 -0.051,-0.45135 -0.1492,-1.24442 -0.3725,-3.61502 -0.4673,-4.96473 -0.1554,-2.21018 -0.1844,-2.64402 -0.2198,-3.29531 -0.022,-0.39506 -0.034,-0.71367 -0.028,-0.70804 0.013,0.0119 0.3003,0.64604 0.4083,0.9022 0.194,0.45955 0.5801,1.39331 0.7766,1.87815 0.4779,1.17968 1.3001,3.14588 1.3248,3.16808 0.01,0.006 0.1486,-0.0924 0.3166,-0.21765 0.168,-0.1253 0.6017,-0.44404 0.9637,-0.70829 0.6479,-0.47294 1.0833,-0.79389 1.4077,-1.03769 0.3413,-0.25667 1.356,-0.97925 1.3928,-0.99198 0.03,-0.0103 0.664,0.3545 0.7981,0.45926 0.015,0.0118 -0.039,0.13091 -0.1181,0.26457 -1.1449,1.90789 -2.3525,3.87534 -2.4916,4.05958 l -0.087,0.11446 0.5259,0.0178 c 0.2892,0.01 1.6333,0.0197 2.9864,0.0219 2.4571,0.004 3.2467,0.0203 3.2467,0.0667 0,0.0136 -0.029,0.0247 -0.064,0.0247 -0.06,0 -0.7527,0.15548 -1.3585,0.30519 -2.7738,0.68547 -5.5794,1.25604 -8.5165,1.732 -0.6146,0.0996 -0.6667,0.10359 -0.6667,0.0513 z m -11.8663,-2.24398 c 0.022,-0.0206 0.7299,-0.0917 1.6325,-0.16418 0.4089,-0.0328 0.9691,-0.0788 1.2448,-0.10212 0.2757,-0.0233 0.7777,-0.0642 1.1156,-0.0908 0.3379,-0.0266 0.6213,-0.054 0.6298,-0.0609 0.01,-0.007 -0.035,-0.1002 -0.097,-0.20731 -0.062,-0.10711 -0.2627,-0.45681 -0.4465,-0.77712 -0.1838,-0.32032 -0.4329,-0.75273 -0.5536,-0.96093 -0.1208,-0.20818 -0.4418,-0.77164 -0.7133,-1.2521 -0.2717,-0.48045 -0.5064,-0.886 -0.5216,-0.90122 -0.066,-0.066 -0.01,-0.12889 0.2715,-0.30161 0.1644,-0.10102 0.4785,-0.30087 0.6981,-0.44411 l 0.399,-0.26041 0.1021,0.0641 c 0.055,0.0352 0.2898,0.19578 0.5192,0.35675 0.2294,0.16096 0.653,0.45647 0.9413,0.65666 0.2883,0.20018 0.8354,0.58091 1.2158,0.84605 0.9821,0.6846 1.0872,0.75546 1.1205,0.75546 0.031,0 0.067,-0.0656 0.8812,-1.63064 0.8707,-1.67418 1.2263,-2.33081 1.2277,-2.26699 0,0.0282 -0.6834,1.55788 -1.1307,2.52906 -0.092,0.20019 -0.2236,0.48847 -0.2919,0.64062 -0.1524,0.33885 -0.5394,1.13626 -0.5609,1.15566 -0.015,0.0135 -0.6716,-0.43333 -1.902,-1.29438 -0.3143,-0.22 -0.9154,-0.63933 -1.3358,-0.93185 l -0.7643,-0.53186 -0.4102,0.25697 c -0.2256,0.14134 -0.4648,0.28896 -0.5313,0.32803 -0.067,0.0391 -0.1211,0.0789 -0.1212,0.0885 -3e-4,0.0328 1.2248,2.16126 2.1104,3.66603 l 0.3684,0.62605 -0.1805,0.02 c -0.1835,0.0203 -1.7632,0.0892 -3.2039,0.13976 -0.4358,0.0153 -1.0032,0.036 -1.2611,0.0459 -0.2579,0.0101 -0.4614,0.0113 -0.4522,0.003 z m 20.9525,-0.0101 c -0.026,-0.003 -0.5578,-0.0197 -1.1802,-0.0372 -0.6225,-0.0175 -1.3645,-0.0442 -1.6491,-0.0597 -0.2846,-0.0154 -0.8152,-0.0418 -1.179,-0.0588 -0.3639,-0.0169 -0.6675,-0.0361 -0.6746,-0.0425 -0.01,-0.007 0.016,-0.055 0.051,-0.1079 0.035,-0.0529 0.2354,-0.39099 0.444,-0.75135 0.5418,-0.93598 0.7491,-1.29273 0.9049,-1.55785 0.4489,-0.76407 1.0613,-1.88962 1.0327,-1.8982 -0.018,-0.006 -0.2695,-0.15376 -0.5579,-0.3294 l -0.5244,-0.31935 -0.4127,0.298 c -0.227,0.16391 -0.5359,0.38428 -0.6864,0.48976 -0.1507,0.10546 -0.5285,0.37184 -0.8398,0.59193 -1.3561,0.9591 -1.974,1.38565 -2.007,1.38565 -0.012,0 -0.051,-0.0623 -0.088,-0.13831 -0.036,-0.0761 -0.1418,-0.29554 -0.234,-0.48774 -0.092,-0.19217 -0.3054,-0.64425 -0.4739,-1.00459 -0.1684,-0.36034 -0.3651,-0.77965 -0.437,-0.93179 -0.2931,-0.61993 -0.8348,-1.84792 -0.8259,-1.87218 0.01,-0.0143 0.027,0.004 0.047,0.0423 0.1494,0.26828 1.0242,1.92044 1.339,2.52877 0.6914,1.33587 0.7549,1.45404 0.7783,1.44767 0.013,-0.004 0.4929,-0.33499 1.067,-0.73674 1.6066,-1.12407 2.4395,-1.70388 2.6387,-1.83666 l 0.1817,-0.12113 0.3567,0.22196 c 0.3557,0.22137 0.7893,0.50201 0.9686,0.62691 0.091,0.0637 0.093,0.0687 0.045,0.15184 -0.027,0.0473 -0.3275,0.58393 -0.6677,1.19251 -0.3403,0.60858 -0.7292,1.2965 -0.8643,1.52873 -0.6395,1.09973 -0.795,1.37432 -0.784,1.38435 0.01,0.006 0.3607,0.0376 0.7869,0.0704 0.4261,0.0328 1.0948,0.0864 1.4861,0.11926 0.3912,0.0328 1.046,0.0852 1.4551,0.11633 0.7639,0.0582 1.1824,0.11642 0.7598,0.10579 -0.1156,-0.003 -0.232,-0.008 -0.2587,-0.0107 z m -9.3912,-6.93082 c -0.018,-0.0415 -0.014,-0.0448 0.018,-0.0163 0.023,0.0197 0.032,0.0432 0.023,0.0522 -0.01,0.009 -0.029,-0.007 -0.04,-0.036 z"
       id="path214-3" /></g></svg>
