<?xml version="1.0" encoding="UTF-8" standalone="no"?>
<!-- Created with Inkscape (http://www.inkscape.org/) -->

<svg
   version="1.1"
   id="svg46"
   width="1024"
   height="1536"
   viewBox="0 0 1024 1536"
   sodipodi:docname="logo sin fondo.svg"
   inkscape:version="1.2.2 (b0a8486541, 2022-12-01)"
   xmlns:inkscape="http://www.inkscape.org/namespaces/inkscape"
   xmlns:sodipodi="http://sodipodi.sourceforge.net/DTD/sodipodi-0.dtd"
   xmlns="http://www.w3.org/2000/svg"
   xmlns:svg="http://www.w3.org/2000/svg">
  <defs
     id="defs50">
    <linearGradient
       id="linearGradient1621"
       inkscape:swatch="solid">
      <stop
         style="stop-color:#000000;stop-opacity:1;"
         offset="0"
         id="stop1619" />
    </linearGradient>
  </defs>
  <sodipodi:namedview
     id="namedview48"
     pagecolor="#ffffff"
     bordercolor="#000000"
     borderopacity="0.25"
     inkscape:showpageshadow="false"
     inkscape:pageopacity="0.0"
     inkscape:pagecheckerboard="0"
     inkscape:deskcolor="#d1d1d1"
     showgrid="false"
     borderlayer="false"
     showborder="false"
     shape-rendering="crispEdges"
     inkscape:zoom="0.52604167"
     inkscape:cx="473.34653"
     inkscape:cy="768"
     inkscape:window-width="1920"
     inkscape:window-height="988"
     inkscape:window-x="0"
     inkscape:window-y="0"
     inkscape:window-maximized="1"
     inkscape:current-layer="g52" />
  <g
     inkscape:groupmode="layer"
     inkscape:label="Image"
     id="g52">
    <path
       style="fill:#002e85;stroke:none;stroke-width:0;stroke-dasharray:none;fill-opacity:1"
       d="m 476.44384,1168.2679 c -1.16446,-3.8444 -6.84549,-24.4087 -12.62454,-45.6983 -12.58142,-46.3493 -27.48721,-100.4965 -30.21805,-109.7709 l -1.97234,-6.6985 -19.48013,12.2323 c -55.02128,34.5497 -167.1014,99.9303 -161.35617,94.1252 1.6046,-1.6213 18.22758,-12.9826 36.175,-24.7244 22.75259,-14.8856 36.3276,-23.9014 73.6898,-48.9403 48.24681,-32.3333 77.65073,-51.3195 78.3856,-50.6135 0.73593,0.7072 16.7783,60.1166 36.09122,133.6563 l 10.98709,41.8365 24.62965,-0.085 24.62967,-0.085 3.79917,-14.7194 c 16.01834,-62.0605 42.35598,-159.7766 43.31436,-160.7016 0.50818,-0.4907 48.21349,30.0775 140.43374,89.9858 22.34221,14.514 43.46587,28.3277 46.94135,30.6969 8.40574,5.7302 9.10913,4.4971 1.11378,-1.9525 -8.22484,-6.6349 -57.58201,-43.4364 -74.04928,-55.2124 -28.08251,-20.0811 -44.00983,-31.3705 -53.57544,-37.9732 -57.06458,-39.3886 -69.05807,-47.26479 -69.84681,-45.86931 -0.47765,0.84522 -4.556,17.46691 -9.06294,36.93691 -7.83009,33.8263 -34.62627,145.595 -35.73177,149.0399 -0.40213,1.2531 -4.7669,1.5605 -18.2605,1.2873 l -17.73206,-0.3594 -5.0877,-19.9528 c -5.00968,-19.6469 -24.09759,-101.4111 -33.95832,-145.4624 -2.77347,-12.39 -5.20844,-22.73552 -5.41107,-22.99006 -0.20263,-0.25454 -8.54992,5.24866 -18.54959,12.22916 -9.99965,6.9805 -21.03738,14.6288 -24.5283,16.9964 -16.85755,11.4326 -71.16132,50.4233 -90.08555,64.6823 -7.00053,5.2748 -16.94866,12.7643 -22.10694,16.6433 -19.24036,14.4684 -44.35286,34.1249 -48.45316,37.9258 -2.33158,2.1613 -6.81713,5.3217 -9.96787,7.0231 l -5.72861,3.0934 6.57716,-8.2651 c 22.426,-28.1814 78.85312,-96.1396 116.42034,-140.211 31.94166,-37.47204 74.79105,-88.03108 116.05144,-136.93203 20.23527,-23.98245 37.85407,-44.83634 39.15284,-46.34199 2.17276,-2.51883 2.49893,-2.56649 4.08223,-0.59642 0.94644,1.17762 7.50395,8.70819 14.57228,16.7346 64.59114,73.34612 163.69724,188.33984 209.50028,243.08514 9.77395,11.6821 20.70094,24.7157 24.2824,28.9637 9.83665,11.6674 34.62911,42.3595 35.92847,44.478 0.85413,1.3924 0.49198,1.3382 -1.43173,-0.2148 -1.41632,-1.1434 -14.03041,-8.4524 -28.03146,-16.2426 -35.66641,-19.8444 -92.3892,-52.638 -137.25089,-79.3502 -20.95752,-12.4789 -38.50186,-22.6888 -38.98741,-22.6888 -0.48555,0 -2.5443,6.2271 -4.57493,13.8382 -2.03062,7.6112 -8.15625,30.3476 -13.61238,50.5257 -5.45619,20.1781 -13.89987,51.7486 -18.76374,70.1566 l -8.84342,33.4692 h -32.67879 -32.6788 z m -269.86512,-49.7577 c 0,-2.1342 5.93711,-22.8662 8.63229,-30.1437 1.70438,-4.6019 8.95009,-26.904 16.1016,-49.5601 7.15148,-22.6563 15.34523,-48.4338 18.20831,-57.2838 2.86307,-8.8501 9.11486,-28.55002 13.89285,-43.77774 4.77797,-15.22771 11.43176,-35.74139 14.78617,-45.58584 3.35441,-9.84458 5.85938,-18.12924 5.56659,-18.41064 -0.29279,-0.28126 -17.32764,2.15517 -37.85522,5.41442 -30.07361,4.7749 -159.576748,24.17467 -169.871285,25.44702 -1.875093,0.23183 -6.263301,-4.0499 -15.956016,-15.56871 -7.353299,-8.73856 -12.798773,-16.26912 -12.101062,-16.73461 0.697711,-0.46534 9.385209,-6.67298 19.305549,-13.79471 48.587394,-34.88013 103.760444,-72.45277 143.550574,-97.7573 16.69948,-10.62003 30.41042,-19.63209 30.46876,-20.0268 0.12139,-0.82162 -0.5891,-1.31231 -47.45735,-32.77382 -19.15935,-12.86119 -44.48185,-29.93406 -56.27222,-37.9397 C 118.24129,656.88439 89.332897,637.4521 63.88845,620.47967 47.279642,609.40096 20.301875,589.80214 20.887007,589.23996 c 0.312281,-0.30004 1.738457,0.0564 3.169283,0.79216 1.430838,0.73573 19.419242,7.46816 39.974242,14.96095 20.555,7.49277 46.717938,17.13651 58.139858,21.4305 11.42192,4.29401 27.09775,10.01563 34.83518,12.71474 7.73744,2.6991 23.71472,8.47867 35.5051,12.84345 11.79036,4.3648 32.28953,11.90128 45.55369,16.74772 54.69469,19.98431 204.19098,76.67326 205.49896,77.92516 0.27903,0.26706 -1.32794,3.25914 -3.57105,6.64907 -2.2431,3.38993 -9.33909,14.85263 -15.7689,25.47267 -6.42978,10.62003 -17.8261,29.44645 -25.32517,41.83649 -52.86471,87.34361 -108.1283,174.50003 -153.04297,241.36443 -8.08494,12.0361 -19.9804,29.8488 -26.43435,39.5838 -10.83614,16.3451 -12.84216,18.9927 -12.84216,16.9491 z m 601.58405,-12.9964 c -3.91506,-6.1557 -14.45727,-21.9452 -23.42706,-35.0879 C 724.31797,981.9 689.0318,927.17403 624.96763,822.6391 c -12.11701,-19.77163 -26.28127,-42.65298 -31.47627,-50.84744 -14.52761,-22.91581 -15.26169,-24.28541 -13.77142,-25.69327 3.00802,-2.84155 186.04105,-72.3139 269.96986,-102.47028 87.9252,-31.5923 152.3381,-55.12437 154.0787,-56.2898 1.1053,-0.74008 0.1477,0.32295 -2.1281,2.36229 -5.25872,4.71213 -18.69157,13.9951 -58.55708,40.46682 -17.53349,11.64269 -36.93213,24.64419 -43.108,28.8922 -6.17575,4.24802 -18.60065,12.6475 -27.61078,18.66552 -9.00997,6.01802 -24.27917,16.25481 -33.93133,22.74843 -9.65216,6.49362 -27.04537,17.98848 -38.65151,25.54415 -11.60615,7.55565 -21.10208,14.24226 -21.10208,14.85911 0,0.61686 1.35656,1.81455 3.01458,2.66151 8.01089,4.09222 55.75786,35.16748 112.20948,73.02957 51.92076,34.82331 80.67788,55.53019 79.88283,57.52083 -0.3328,0.83326 -5.61355,8.01703 -11.73517,15.96404 -10.94266,14.20587 -11.20956,14.43989 -15.8571,13.90683 -2.59992,-0.29813 -14.97672,-2.08706 -27.50398,-3.97537 -12.52728,-1.8883 -50.51103,-7.45977 -84.40833,-12.38115 -33.89732,-4.92139 -69.92507,-10.22549 -80.0617,-11.78695 -10.13664,-1.56147 -18.68761,-2.5918 -19.00206,-2.28968 -0.31446,0.30213 2.78065,10.09804 6.8778,21.76888 10.98635,31.2941 38.17816,111.29946 48.11945,141.58016 4.76504,14.5139 11.42889,34.499 14.80857,44.411 6.67133,19.5658 11.19884,34.5147 10.62138,35.0695 -0.2003,0.1924 -3.56739,-4.6865 -7.4826,-10.8422 z m -601.49441,-2.4055 c -0.0494,-0.7419 3.17257,-16.672 7.15972,-35.4001 3.98714,-18.728 9.7516,-45.9262 12.80991,-60.4401 5.87672,-27.8898 22.28934,-96.33762 24.34683,-101.53707 l 1.21546,-3.07157 -9.7476,0.90908 c -5.36116,0.49997 -31.15112,3.50371 -57.311,6.67505 -26.15988,3.17138 -52.38675,6.31354 -58.28194,6.9826 -5.89519,0.66907 -23.259,2.63618 -38.586257,4.37134 -15.32726,1.73516 -28.591424,2.86116 -29.475933,2.50221 -0.884486,-0.35895 -8.541721,-9.43145 -17.016044,-20.16097 -8.474324,-10.72959 -17.355543,-21.61545 -19.736047,-24.19064 l -4.32819,-4.68221 22.415688,-16.23231 c 12.32863,-8.92778 50.752759,-36.85918 85.386963,-62.06981 34.63422,-25.21065 65.82431,-47.68111 69.31135,-49.93436 3.48702,-2.25325 6.338,-4.38646 6.33551,-4.74045 -0.002,-0.35401 -2.39068,-2.26549 -5.30709,-4.24774 C 173.95867,722.95535 66.198066,634.82223 53.839842,621.68887 48.119311,615.60953 47.44693,615.142 106.976,658.63497 c 73.45189,53.6652 112.94175,82.88396 112.96983,83.58697 0.0171,0.42712 -4.20099,3.48034 -9.37345,6.78494 -19.91717,12.72469 -125.165552,86.1425 -162.485881,113.34486 l -13.994676,10.20051 5.519613,6.61416 c 3.035774,3.63783 10.518444,12.74699 16.628124,20.24268 10.970328,13.45894 11.170326,13.62181 16.07777,13.08915 26.234182,-2.84796 169.41935,-20.48841 181.82481,-22.40092 11.05046,-1.70358 13.15605,-1.61207 12.29874,0.53448 -1.18029,2.95507 -26.52724,94.278 -41.66222,150.1055 -13.78982,50.8656 -17.92789,65.1169 -18.1103,62.371 z m 604.21397,-13.0957 c -0.91429,-3.3833 -2.46566,-8.7582 -3.44762,-11.9442 -0.9818,-3.1861 -4.90144,-17.3783 -8.71027,-31.5383 -3.80882,-14.1601 -13.52998,-48.6269 -21.60236,-76.59299 -18.46305,-63.96252 -22.86367,-79.9478 -22.18813,-80.59684 0.29583,-0.28424 31.83573,3.23968 70.08865,7.83089 38.25305,4.59107 82.21223,9.83544 97.68709,11.65398 15.47487,1.81866 29.07493,3.57234 30.2222,3.89697 1.15211,0.32617 3.60746,-0.9979 5.484,-2.95739 4.96897,-5.1885 29.29077,-36.37188 29.18237,-37.41522 -0.0509,-0.48903 -4.12047,-3.76799 -9.04375,-7.28663 -40.7912,-29.15283 -64.89459,-45.83517 -161.28876,-111.63016 -8.62198,-5.88504 -15.70626,-11.01657 -15.74283,-11.40338 -0.0362,-0.38681 9.10833,-7.33811 20.32204,-15.44732 23.2364,-16.80353 88.92229,-64.76034 104.71187,-76.44951 5.80047,-4.29411 13.43594,-9.83493 16.9677,-12.31295 3.53161,-2.47801 11.06927,-7.98112 16.75009,-12.22913 16.59669,-12.41058 17.87929,-13.05819 8.63027,-4.35744 -23.03086,21.66581 -118.12837,98.81388 -145.34148,117.90869 -3.93625,2.76193 -3.96398,2.8592 -1.33982,4.69486 1.4738,1.03096 6.70109,4.67999 11.61606,8.10895 4.91511,3.42896 20.59094,14.6753 34.83518,24.99185 14.24438,10.31658 50.31688,36.31335 80.16125,57.77064 29.84438,21.45724 54.42932,39.41977 54.63322,39.91654 0.2038,0.49689 -3.60205,5.78102 -8.45717,11.7424 -4.85523,5.96138 -13.22103,16.34327 -18.59047,23.07071 -5.36945,6.72746 -10.67363,12.95807 -11.78715,13.84591 -1.63993,1.30779 -11.15356,0.52458 -50.11068,-4.12521 -26.44754,-3.15677 -61.04906,-7.24367 -76.89237,-9.08233 -15.84331,-1.83863 -35.30813,-4.18314 -43.25512,-5.21013 -7.94696,-1.027 -16.91033,-1.86719 -19.91849,-1.86719 -5.03663,0 -5.40065,0.22912 -4.59931,2.89637 2.90565,9.67195 19.16672,74.85496 25.44992,102.01666 11.22925,48.5437 22.35427,107.1914 15.57387,82.1009 z M 501.32928,751.18444 c -11.16392,-3.26274 -19.79129,-11.65174 -23.43773,-22.79012 -7.25691,-22.16689 9.67043,-44.7882 33.43211,-44.67792 31.27512,0.1451 47.13417,37.08432 25.03651,58.31548 -9.22372,8.86204 -23.37453,12.55924 -35.03089,9.15256 z M 441.0463,660.93346 c -7.00053,-1.29034 -23.27929,-4.16161 -36.17501,-6.38061 C 304.58009,637.29551 210.57745,616.83043 88.00511,585.5687 63.687475,579.36655 38.718378,573.01979 32.518244,571.46479 c -11.178762,-2.80365 -11.229162,-2.83471 -6.029162,-3.71742 2.884095,-0.48959 64.329646,-1.37035 136.545658,-1.95726 149.20159,-1.21257 137.33101,-0.99972 137.33101,-2.46256 0,-0.61447 -4.74225,-9.15877 -10.53835,-18.98733 -17.99935,-30.52195 -85.66215,-148.46519 -95.45072,-166.38044 -4.0631,-7.43636 -5.37033,-10.95614 -4.2218,-11.36739 0.91501,-0.32763 7.93539,-4.89358 15.60084,-10.14656 7.66545,-5.25297 14.64107,-9.55086 15.50135,-9.55086 0.8603,0 12.53033,8.51137 25.93341,18.91415 35.52553,27.57308 57.85571,44.93439 69.25305,53.84297 5.52673,4.31991 20.9011,16.32042 34.16526,26.66782 13.26418,10.3474 27.90202,21.83292 32.52853,25.5234 4.62653,3.69047 8.58424,6.48501 8.79493,6.2101 1.13971,-1.48715 61.5001,-157.6804 81.11232,-209.89256 7.11279,-18.93584 21.74446,-52.85297 22.49105,-52.13564 0.15151,0.14557 -1.16996,28.63707 -2.93656,63.31447 -4.6824,91.91167 -9.13486,157.54623 -15.4111,227.17762 -5.68658,63.08941 -6.53623,72.15688 -8.62449,92.0403 -1.04101,9.91204 -2.95778,28.59365 -4.25948,41.51469 l -2.36674,23.4928 -4.08136,-0.14278 c -2.24476,-0.0785 -9.80907,-1.19851 -16.80959,-2.48885 z m 119.2435,0.98877 c 0,-0.90358 -0.57063,-6.26186 -1.26805,-11.90731 -0.69743,-5.64546 -1.62279,-14.02973 -2.05636,-18.63175 -0.43358,-4.60202 -1.37449,-13.58078 -2.09095,-19.95279 -6.18548,-55.01345 -15.43221,-159.81294 -19.36534,-219.48072 -6.4406,-97.70725 -7.63952,-116.8865 -9.10648,-145.67826 -0.88985,-17.46483 -1.40623,-31.55023 -1.14752,-31.30088 0.5468,0.52701 12.4385,28.55936 16.91939,39.88415 8.03852,20.31618 24.03396,61.59511 32.1736,83.02936 19.8042,52.1509 53.87382,139.07216 54.89516,140.05352 0.25764,0.24751 6.16207,-4.08219 13.12093,-9.62156 6.95887,-5.53936 24.9274,-19.6296 39.92983,-31.31164 26.85096,-20.90813 44.89157,-35.09665 58.32883,-45.87449 14.14671,-11.34688 56.18553,-43.2906 57.71239,-43.85354 1.23879,-0.45672 27.51122,15.67195 33.07199,20.30297 0.62971,0.52438 -1.57415,5.78776 -4.89729,11.69642 -47.43722,84.34364 -97.47232,171.32045 -103.24116,179.46547 l -3.58374,5.05995 21.79342,0.78738 c 11.98625,0.43305 67.67096,0.8675 123.74382,0.96545 101.8101,0.17784 134.52678,0.89538 134.52678,2.95046 0,0.59919 -1.1974,1.08946 -2.66074,1.08946 -2.5123,0 -31.18996,6.87326 -56.29112,13.4914 -114.93359,30.30332 -231.18435,55.52687 -352.88898,76.56826 -25.46561,4.40271 -27.61841,4.57955 -27.61841,2.26869 z M 68.597545,562.72037 c 0.933033,-0.91126 30.241849,-4.05598 67.640895,-7.25764 16.94866,-1.45093 40.16095,-3.48265 51.58287,-4.51494 11.42193,-1.03227 32.22255,-2.83781 46.2236,-4.01228 14.00107,-1.17449 25.74516,-2.38553 26.09795,-2.69123 0.3528,-0.30571 -1.45413,-4.42996 -4.01538,-9.165 -2.56127,-4.73505 -10.88688,-20.19468 -18.50136,-34.35472 -7.61448,-14.16005 -17.93797,-33.27611 -22.94111,-42.48014 -5.00313,-9.20402 -18.3042,-34.11284 -29.55793,-55.35291 -11.25372,-21.24007 -20.97902,-39.16861 -21.61178,-39.84122 -2.74304,-2.91576 -0.39517,-5.69829 11.25072,-13.33364 6.81197,-4.46609 19.82754,-13.30086 28.92351,-19.63284 l 16.53813,-11.51268 4.229,2.83267 c 2.32594,1.55796 12.00746,8.65491 21.51446,15.771 9.507,7.1161 27.05947,20.17929 39.00549,29.02932 11.94601,8.85004 34.61485,25.68113 50.37519,37.40248 40.69303,30.26436 45.04924,33.39775 46.43131,33.39775 1.30898,0 2.77851,-2.90162 36.50915,-72.08751 36.08376,-74.01246 50.81927,-103.04073 50.874,-100.21952 0.0242,1.24779 -28.31297,68.87134 -46.85111,111.80502 -3.82132,8.85002 -9.26623,21.59407 -12.09979,28.32009 -6.31096,14.98032 -22.34425,50.23185 -23.2367,51.08932 -0.62185,0.59745 -27.82795,-19.15625 -78.80945,-57.22163 -13.02519,-9.72526 -37.93327,-28.26303 -55.35127,-41.19501 l -31.66912,-23.51268 -16.99871,11.36025 c -9.34929,6.24815 -19.25553,12.77393 -22.01386,14.50175 -2.75833,1.72782 -5.01927,3.48937 -5.02431,3.91451 -0.0172,1.44973 50.75373,95.54484 87.44675,162.06753 l 15.26597,27.67644 -7.48201,0.88399 c -7.59683,0.89755 -73.05628,3.94409 -132.75467,6.1785 -18.054,0.67574 -41.567756,1.58858 -52.252771,2.02856 -10.685027,0.43998 -19.116978,0.49687 -18.737664,0.12641 z m 868.180215,-0.4477 c -1.10536,-0.13265 -23.11181,-0.87255 -48.90325,-1.64423 -25.79143,-0.77169 -56.54018,-1.95905 -68.33055,-2.63861 -11.79037,-0.67956 -33.77352,-1.84817 -48.85138,-2.59691 -15.07801,-0.74874 -27.65726,-1.59465 -27.95404,-1.87979 -0.29676,-0.28514 0.67018,-2.43155 2.1488,-4.76979 1.47862,-2.33825 9.75975,-17.28504 18.4025,-33.21509 22.4494,-41.37759 31.03452,-57.14882 37.48908,-68.86931 18.60226,-33.77829 43.97727,-83.53669 42.79408,-83.9156 -0.76436,-0.24479 -11.16829,-6.79798 -23.11997,-14.56261 l -21.73019,-14.11753 -17.0963,13.17409 c -9.40309,7.24575 -22.20288,16.98871 -28.44414,21.65105 -6.24125,4.66232 -21.89873,16.43814 -34.79445,26.16846 -56.19237,42.39941 -81.79273,61.25671 -83.16122,61.25671 -0.48944,0 -2.12763,-2.75156 -3.64055,-6.11457 -1.51278,-3.36301 -5.87643,-13.06586 -9.69704,-21.56189 -3.82048,-8.49603 -12.65629,-28.481 -19.63512,-44.41105 -6.97869,-15.93006 -15.12772,-34.46684 -18.1088,-41.19286 -12.14636,-27.40546 -34.59126,-81.69215 -34.21916,-82.76464 0.21915,-0.6317 1.10667,0.20888 1.97226,1.86792 6.18799,11.86029 42.43591,84.89821 55.48089,111.79136 28.6459,59.0559 31.27865,64.28065 32.24773,63.99882 0.52696,-0.15324 20.4232,-14.80952 44.21389,-32.56953 66.56789,-49.69351 101.08285,-75.32523 109.33504,-81.19495 l 7.52802,-5.35462 14.77923,9.81201 c 14.7405,9.78624 32.70702,22.1925 40.13455,27.71369 3.79194,2.81878 3.85251,3.03493 1.8819,6.71355 -1.11994,2.09055 -13.57099,25.81344 -27.66892,52.71753 -14.09805,26.9041 -30.2112,57.31601 -35.80707,67.58205 -26.50047,48.61701 -32.94364,60.75618 -32.48274,61.19894 0.27372,0.26304 14.94375,1.66327 32.59997,3.11165 17.65621,1.44838 45.36639,3.82085 61.57815,5.27215 16.21176,1.45131 43.34301,3.76545 60.29167,5.1425 31.65646,2.57207 48.9934,5.14702 31.48563,4.67639 -4.78982,-0.12876 -9.61316,-0.34264 -10.7185,-0.47529 z M 547.64769,255.87565 c -0.72709,-1.83463 -0.57319,-1.98248 0.75004,-0.72062 0.91566,0.87321 1.32732,1.91191 0.91479,2.30826 -0.41251,0.39633 -1.16168,-0.3181 -1.66483,-1.58764 z"
       id="path214" />
  </g>
</svg>
